<svg xmlns="http://www.w3.org/2000/svg" width="96" height="96" viewBox="0 0 96 96">
<defs><linearGradient id="shell" x1="0" y1="0" x2=".5" y2="1"><stop stop-color="#fff5d9"/><stop offset=".42" stop-color="#d8ceb3"/><stop offset="1" stop-color="#746a82"/></linearGradient><radialGradient id="glass" cx=".3" cy=".25" r=".8"><stop stop-color="#ffe3f4"/><stop offset=".4" stop-color="#d39cb9"/><stop offset="1" stop-color="#714b6c"/></radialGradient></defs>
<g stroke="#252637" stroke-width="2.5" stroke-linejoin="round"><path d="M28 29Q20 8 34 11M66 28Q80 7 70 10" fill="none" stroke="#ecbddf" stroke-width="4"/><path d="M22 48Q18 25 48 23Q78 25 75 48L65 66L53 69L43 80L40 68L29 65Z" fill="url(#shell)"/><ellipse cx="37" cy="44" rx="8" ry="11" fill="#292137"/><ellipse cx="61" cy="42" rx="8" ry="11" fill="#292137"/><circle cx="39" cy="41" r="3" fill="#fff8dd"/><circle cx="63" cy="39" r="3" fill="#fff8dd"/><path d="M39 59Q49 66 58 57M12 36Q3 48 14 58M83 33Q94 46 84 57" fill="none" stroke="#e3acdc" stroke-width="4" stroke-linecap="round"/></g>
</svg>
